<?xml version="1.0" standalone="no"?>
<!DOCTYPE svg PUBLIC "-//W3C//DTD SVG 20010904//EN"
 "http://www.w3.org/TR/2001/REC-SVG-20010904/DTD/svg10.dtd">
<svg version="1.0" xmlns="http://www.w3.org/2000/svg"
 width="570.000000pt" height="570.000000pt" viewBox="0 0 570.000000 570.000000"
 preserveAspectRatio="xMidYMid meet">
<metadata>
Created by potrace 1.11, written by Peter Selinger 2001-2013
</metadata>
<g transform="translate(0.000000,570.000000) scale(0.100000,-0.100000)"
fill="#000000" stroke="none">
<path d="M2737 5174 c-1 -1 -38 -5 -82 -8 -346 -29 -699 -141 -973 -307 -35
-22 -66 -39 -68 -39 -3 0 -46 -30 -97 -66 -316 -228 -557 -503 -727 -829 -112
-216 -194 -457 -230 -685 -7 -41 -14 -83 -16 -93 -15 -81 -21 -407 -10 -497 3
-25 8 -65 11 -90 10 -86 13 -104 50 -275 11 -48 49 -171 56 -179 5 -6 349 161
367 179 2 2 -1 19 -7 38 -7 19 -13 43 -15 53 -3 10 -9 40 -15 67 -6 26 -14 64
-16 85 -3 20 -7 46 -10 57 -22 106 -22 421 1 538 2 12 6 39 9 62 11 74 55 235
91 333 192 516 608 933 1124 1127 3 1 12 4 20 8 68 26 239 72 305 82 23 3 50
7 62 9 125 24 441 25 564 1 13 -3 49 -10 79 -16 30 -6 69 -13 85 -16 72 -12
280 -88 391 -142 657 -321 1076 -988 1075 -1711 0 -88 -8 -228 -15 -268 -2 -9
-7 -37 -11 -62 -7 -43 -10 -58 -19 -98 -157 -686 -676 -1233 -1349 -1421 -43
-13 -88 -24 -100 -27 -12 -2 -33 -6 -47 -9 -67 -14 -99 -19 -225 -31 -155 -15
-364 1 -552 41 -277 60 -517 171 -749 345 -47 36 -92 69 -98 74 -8 5 -45 -10
-103 -43 -51 -28 -127 -69 -170 -92 -128 -69 -124 -57 -41 -132 40 -36 87 -76
103 -88 17 -13 32 -26 35 -29 16 -17 128 -94 210 -145 192 -118 484 -240 675
-281 107 -23 106 -23 165 -34 149 -26 472 -35 639 -17 766 81 1467 569 1814
1263 104 206 184 446 211 629 4 23 9 52 11 65 21 103 28 483 12 622 -45 408
-216 822 -474 1157 -91 117 -317 341 -433 427 -356 266 -748 416 -1200 460
-59 6 -308 12 -313 8z"/>
<path d="M1453 3553 c-30 -14 -60 -57 -59 -83 1 -17 861 -539 889 -540 9 0 35
11 57 25 22 14 42 25 44 25 2 0 35 17 73 38 37 22 113 63 168 92 152 80 150
70 17 114 -1136 367 -1032 335 -1109 340 -30 2 -63 -2 -80 -11z"/>
<path d="M4030 3532 c-74 -7 -146 -26 -183 -46 -49 -27 -173 -93 -302 -161
-49 -26 -103 -55 -120 -65 -16 -10 -75 -41 -130 -70 -55 -29 -122 -65 -150
-80 -27 -15 -95 -51 -150 -80 -55 -29 -113 -61 -130 -70 -16 -10 -75 -41 -130
-70 -55 -29 -156 -83 -225 -120 -69 -37 -161 -86 -205 -110 -44 -23 -102 -55
-130 -70 -57 -31 -136 -73 -355 -190 -85 -46 -177 -95 -205 -110 -61 -33 -169
-91 -290 -155 -49 -26 -112 -60 -140 -75 -85 -46 -177 -96 -250 -134 -38 -20
-77 -41 -85 -46 -8 -5 -76 -42 -150 -81 -408 -216 -471 -252 -496 -284 -38
-50 -52 -96 -50 -156 7 -162 176 -261 326 -191 25 11 88 44 140 72 52 29 226
122 385 208 160 85 335 180 390 209 55 30 116 62 135 71 19 9 37 19 40 22 3 3
32 19 65 37 144 75 195 102 265 141 79 43 156 84 465 247 173 91 197 107 273
181 74 73 85 82 84 64 -1 -10 -12 -461 -18 -710 -3 -135 -6 -284 -8 -332 -3
-96 -1 -98 59 -98 61 0 93 46 159 232 32 90 78 217 101 283 24 66 58 161 75
210 17 50 42 119 55 155 13 36 58 161 99 279 42 118 77 215 78 216 11 6 320
175 408 223 36 19 103 56 150 82 47 26 117 64 155 85 39 21 84 46 100 55 17
10 56 32 88 49 31 17 83 45 115 62 114 62 122 69 122 99 0 53 -162 179 -265
205 -43 11 -136 21 -165 17z"/>
</g>
</svg>
