<?xml version="1.0" standalone="no"?>
<!DOCTYPE svg PUBLIC "-//W3C//DTD SVG 20010904//EN"
 "http://www.w3.org/TR/2001/REC-SVG-20010904/DTD/svg10.dtd">
<svg version="1.0" xmlns="http://www.w3.org/2000/svg"
 width="1024.000000pt" height="1024.000000pt" viewBox="0 0 1024.000000 1024.000000"
 preserveAspectRatio="xMidYMid meet">
<metadata>
Created by potrace 1.11, written by Peter Selinger 2001-2013
</metadata>
<g transform="translate(0.000000,1024.000000) scale(0.100000,-0.100000)"
fill="#000000" stroke="none">
<path d="M7665 8153 c-245 -30 -566 -177 -810 -371 -38 -30 -250 -234 -470
-452 l-400 -397 -1450 348 c-797 191 -1463 348 -1478 348 -16 1 -38 -4 -50
-10 -31 -16 -605 -588 -623 -621 -27 -52 -13 -130 32 -169 11 -9 518 -290
1127 -625 l1108 -608 -563 -563 -563 -563 -420 115 c-272 74 -437 115 -470
115 l-49 0 -233 -232 c-128 -128 -239 -246 -248 -264 -18 -39 -19 -84 -3 -120
9 -18 206 -173 576 -450 l563 -423 423 -564 c326 -434 431 -567 455 -577 19
-7 52 -11 82 -8 l51 5 230 229 c126 126 236 241 244 256 8 15 14 37 14 50 0
13 -52 213 -115 444 -63 232 -115 428 -115 436 0 14 1116 1135 1123 1128 2 -3
280 -507 617 -1121 472 -861 619 -1120 640 -1133 32 -19 111 -21 143 -4 47 25
575 427 600 457 20 24 27 43 27 74 -1 23 -157 722 -349 1552 l-348 1510 397
400 c218 220 426 439 463 487 266 342 410 752 356 1010 -16 78 -64 171 -106
208 -93 82 -254 123 -408 103z"/>
</g>
</svg>
